***********************************************************************************
   Torrent Title : Twilight.Eclipse.Dark.[2010].[ENG]cam.Innocence.Group.Release
***********************************************************************************

Plot

Bella once again finds herself surrounded by danger as Seattle is ravaged by a string of mysterious killings and a malicious vampire continues her quest for revenge. In the midst of it all, she is forced to choose between her love for Edward and her friendship with Jacob -- knowing that her decision has the potential to ignite the struggle between vampire and werewolf. With her graduation quickly approaching, Bella is confronted with the most important decision of her life.


-----------------------------------------------------------------------------------

Movie Info
 
 
http://www.imdb.com/title/tt1325004/

MOVIEmeter: Up 200% in popularity this week.

Genre:Fantasy | Romance | Thriller


-----------------------------------------------------------------------------------

Video


ID : 0
Format : MPEG-4 Visual
Format profile : Advanced Simple@L5
Format settings, BVOP : No
Format settings, QPel : No
Format settings, GMC : No warppoints
Format settings, Matrix : Default (H.263)
Codec ID : XVID
Codec ID/Hint : XviD
Duration : 1h 58mn
Bit rate : 792 Kbps
Width : 352 pixels
Height : 264 pixels
Display aspect ratio : 4:3
Frame rate : 29.970 fps
Resolution : 8 bits
Colorimetry : 4:2:0
Scan type : Progressive
Bits/(Pixel*Frame) : 0.284
Stream size : 673 MiB (85%)
Writing library : XviD 1.1.2 (UTC 2006-11-01)


-----------------------------------------------------------------------------------

Audio


ID : 1
Format : MPEG Audio
Format version : Version 1
Format profile : Layer 3
Codec ID : 55
Codec ID/Hint : MP3
Duration : 1h 58mn
Bit rate mode : Constant
Bit rate : 128 Kbps
Channel(s) : 2 channels
Sampling rate : 44.1 KHz
Stream size : 109 MiB (14%)
Alignment : Split accross interleaves
Interleave, duration : 67 ms (2.00 video frame


-----------------------------------------------------------------------------------

Screenshots

 
http://postimg.com/image/18000/17311.jpg
 
http://postimg.com/image/18000/17312.jpg
 
http://postimg.com/image/18000/17318.jpg
 
http://postimg.com/image/18000/17319.jpg
 
http://postimg.com/image/18000/17320.jpg


===================================================================================